# Blender v2.77 (sub 0) OBJ File: 'Rocket.blend'
# www.blender.org
mtllib Rocket.mtl
o Cube
v 0.592511 -3.113419 -0.584750
v 0.592511 -3.113419 0.604441
v -0.596681 -3.113419 0.604441
v -0.596680 -3.113419 -0.584750
v 0.592511 3.508641 -0.584750
v 0.592511 3.508641 0.604442
v -0.596681 3.508641 0.604441
v -0.596680 3.508641 -0.584750
v -0.122141 1.433666 0.208035
v 0.056818 1.397324 0.100460
v 0.830349 -3.113419 0.009846
v -0.002085 -3.113419 -0.822589
v -0.002085 -3.113419 0.842279
v -0.834519 -3.113419 0.009845
v 0.830349 3.508641 0.009846
v -0.002085 3.508641 -0.822588
v -0.002085 3.508641 0.842280
v -0.834519 3.508641 0.009845
v -0.002085 5.907755 0.009846
v -0.002085 -3.113419 0.009846
v 0.592511 0.197611 -0.584750
v 0.592511 0.197611 0.604441
v -0.596681 0.197611 0.604441
v -0.596680 0.197611 -0.584750
v -0.002085 0.197611 -0.822588
v -0.834519 0.197611 0.009845
v -0.002085 0.197611 0.842280
v 0.830349 0.197611 0.009846
v 1.319166 -3.336007 0.009846
v 0.941666 -3.336007 0.953596
v -0.002085 -3.336007 1.331096
v -0.945835 -3.336007 0.953596
v -1.323335 -3.336007 0.009845
v -0.945835 -3.336007 -0.933905
v 0.941666 -3.336007 -0.933905
v -0.002085 -3.336007 -1.311405
v -1.323335 -3.224381 0.009845
v -0.002085 -3.224381 1.331096
v 1.319166 -3.224381 0.009846
v 0.941666 -3.224381 -0.933905
v 0.941665 -3.224381 0.953596
v -0.945835 -3.224381 0.953596
v -0.945835 -3.224381 -0.933905
v -0.002084 -3.224381 -1.311405
vn 0.9285 0.0000 0.3714
vn -0.3714 -0.0000 0.9285
vn -0.9285 -0.0000 -0.3714
vn -0.3714 0.0000 -0.9285
vn 1.0000 0.0000 0.0000
vn -0.9285 -0.0000 0.3714
vn 0.3714 -0.0000 0.9285
vn 0.9285 -0.0000 -0.3714
vn 0.0000 -1.0000 -0.0000
vn 0.8837 0.3066 0.3535
vn 0.3535 0.3066 0.8837
vn -0.3535 0.3066 0.8837
vn -0.8837 0.3066 0.3535
vn -0.8837 0.3066 -0.3535
vn -0.3535 0.3066 -0.8837
vn 0.3535 0.3066 -0.8837
vn 0.8837 0.3066 -0.3535
vn 0.3714 0.0000 -0.9285
vn -1.0000 0.0000 -0.0000
vn 0.3682 0.1315 -0.9204
vn -0.0000 -0.0000 1.0000
vn -0.4088 -0.8978 -0.1635
vn 0.0000 0.0000 -1.0000
vn -0.9204 0.1315 -0.3682
vn -0.3682 0.1315 0.9204
vn 0.1635 -0.8978 -0.4088
vn 0.7071 -0.0000 0.7071
vn 0.9204 0.1315 0.3682
vn -0.7071 -0.0000 0.7071
vn 0.4088 -0.8978 0.1635
vn -0.7071 -0.0000 -0.7071
vn -0.1635 -0.8978 0.4088
vn 0.7071 0.0000 -0.7071
usemtl Material
s off
f 28//1 15//1 6//1 22//1
f 27//2 17//2 7//2 23//2
f 26//3 18//3 8//3 24//3
f 25//4 12//4 4//4 24//4
f 13//5 27//5 38//5 31//5
f 23//6 7//6 18//6 26//6
f 22//7 6//7 17//7 27//7
f 21//8 5//8 15//8 28//8
f 3//9 20//9 13//9
f 13//9 20//9 2//9
f 2//9 20//9 11//9
f 11//9 20//9 1//9
f 20//9 12//9 1//9
f 20//9 4//9 12//9
f 4//9 20//9 14//9
f 20//9 3//9 14//9
f 15//10 19//10 6//10
f 19//11 17//11 6//11
f 19//12 7//12 17//12
f 19//13 18//13 7//13
f 19//14 8//14 18//14
f 8//15 19//15 16//15
f 16//16 19//16 5//16
f 19//17 15//17 5//17
f 1//8 21//8 28//8 11//8
f 2//7 22//7 27//7 13//7
f 3//6 23//6 26//6 14//6
f 5//18 21//18 25//18 16//18
f 16//4 25//4 24//4 8//4
f 12//19 25//19 44//19 36//19
f 25//20 21//20 40//20 44//20
f 14//21 26//21 37//21 33//21
f 40//18 35//18 36//18 44//18
f 33//3 37//3 43//3 34//3
f 31//2 38//2 42//2 32//2
f 29//1 39//1 41//1 30//1
f 2//22 11//22 29//22 30//22
f 11//23 28//23 39//23 29//23
f 26//24 24//24 43//24 37//24
f 27//25 23//25 42//25 38//25
f 3//26 13//26 31//26 32//26
f 21//27 1//27 35//27 40//27
f 28//28 22//28 41//28 39//28
f 22//29 2//29 30//29 41//29
f 4//30 14//30 33//30 34//30
f 23//31 3//31 32//31 42//31
f 1//32 12//32 36//32 35//32
f 24//33 4//33 34//33 43//33
